<?xml version="1.0" encoding="UTF-8"?>
<svg width="282.12mm" height="282.12mm" version="1.1" viewBox="0 0 282.12332 282.12332" xmlns="http://www.w3.org/2000/svg"><defs><marker id="marker4843" overflow="visible" orient="auto"><path transform="scale(.4)" d="m5.77 0l-8.65 5v-10l8.65 5z" fill="#ff2d2d" fill-rule="evenodd" stroke="#ff2d2d" stroke-width="1pt"/></marker><marker id="marker4837" overflow="visible" orient="auto"><path transform="scale(.4)" d="m5.77 0l-8.65 5v-10l8.65 5z" fill="#ff2d2d" fill-rule="evenodd" stroke="#ff2d2d" stroke-width="1pt"/></marker><marker id="marker4831" overflow="visible" orient="auto"><path transform="scale(.4)" d="m5.77 0l-8.65 5v-10l8.65 5z" fill="#ff2d2d" fill-rule="evenodd" stroke="#ff2d2d" stroke-width="1pt"/></marker><marker id="marker4825" overflow="visible" orient="auto"><path transform="scale(.4)" d="m5.77 0l-8.65 5v-10l8.65 5z" fill="#ff2d2d" fill-rule="evenodd" stroke="#ff2d2d" stroke-width="1pt"/></marker><marker id="marker4819" overflow="visible" orient="auto"><path transform="scale(.4)" d="m5.77 0l-8.65 5v-10l8.65 5z" fill="#2d74ff" fill-rule="evenodd" stroke="#2d74ff" stroke-width="1pt"/></marker><marker id="marker4813" overflow="visible" orient="auto"><path transform="scale(.4)" d="m5.77 0l-8.65 5v-10l8.65 5z" fill-rule="evenodd" stroke="#000" stroke-width="1pt"/></marker><marker id="marker4801" overflow="visible" orient="auto"><path transform="scale(.4)" d="m5.77 0l-8.65 5v-10l8.65 5z" fill="#2d74ff" fill-rule="evenodd" stroke="#2d74ff" stroke-width="1pt"/></marker><marker id="TriangleOutM" overflow="visible" orient="auto"><path transform="scale(.4)" d="m5.77 0l-8.65 5v-10l8.65 5z" fill="#2d74ff" fill-rule="evenodd" stroke="#2d74ff" stroke-width="1pt"/></marker><marker id="Arrow1Mend" overflow="visible" orient="auto"><path transform="scale(.4) rotate(180) translate(10)" d="m0 0l5-5-17.5 5 17.5 5-5-5z" fill-rule="evenodd" stroke="#000" stroke-width="1pt"/></marker></defs><g transform="translate(384.86 2.4337)"><path d="m-143.63 189.13c0-35.785-19.091-68.852-50.082-86.744-30.991-17.893-69.173-17.893-100.16 0-30.991 17.893-50.082 50.959-50.082 86.744" fill="#edf8d1" style="paint-order:normal"/><path d="m-437.77 274.32c12.851-133.8 55.766-234.02 85.423-222.63 18.702 7.1827 24.278 33.135 40.065 74.083 12.095 31.372 38.354 66.233 73.327 62.744 37.388-3.7296 64.634-27.592 79.375-53.295s25.324-45.735 40.065-48.759c7.3705-1.5119 19.466 10.394 27.828 15.875 4.1814 2.7403-0.6969 123.88-0.1949 183.48s-345.89-11.505-345.89-11.505" fill="#e9e9e9" stroke="#000" stroke-width="1.665"/><g fill="none"><path d="m-143.63 189.13c0-35.785-19.091-68.852-50.082-86.744-30.991-17.893-69.173-17.893-100.16 0-30.991 17.893-50.082 50.959-50.082 86.744" stroke="#030303" stroke-dasharray="1.665, 1.66500000000000000" stroke-width="1.665" style="paint-order:normal"/><g><path d="m-243.74 189.23 68.688-73.232" marker-end="url(#TriangleOutM)" stroke="#2d74ff" stroke-width="2.265"/><path d="m-243.74 189.23-52.97-85.294" marker-end="url(#marker4801)" stroke="#2d74ff" stroke-width="2.265"/><path d="m-243.74 189.23-0.51124-127.33" marker-end="url(#marker4813)" stroke="#000" stroke-width="3.365"/><path d="m-243.74 189.23 37.152-93.278" marker-end="url(#marker4819)" stroke="#2d74ff" stroke-width="2.265"/></g><g stroke="#ff2d2d" stroke-width="2.265"><path d="m-243.74 189.23 22.291-0.29044" marker-end="url(#marker4843)"/><path d="m-243.74 189.23 61.57-27.474" marker-end="url(#marker4825)"/><path d="m-243.74 189.23-44.144-24.701" marker-end="url(#marker4831)"/><path d="m-243.74 189.23-18.483 0.0625" marker-end="url(#marker4837)"/></g></g><circle cx="-243.79" cy="188.45" r="4.2092" fill="#ff2dfa" style="paint-order:normal"/><text x="-234.11629" y="57.855923" fill="#000000" font-family="sans-serif" font-size="10.583px" letter-spacing="0px" stroke-width=".26458" word-spacing="0px" style="line-height:1.25" xml:space="preserve"><tspan x="-234.11629" y="57.855923" font-size="21.167px" stroke-width=".26458">n</tspan></text><path d="m-234.92 40.483h14.165" fill="none" marker-end="url(#Arrow1Mend)" stroke="#000" stroke-width=".865"/></g></svg>
