<?xml version="1.0" encoding="UTF-8"?>
<svg width="199.06mm" height="114.14mm" version="1.1" viewBox="0 0 199.05792 114.14462" xmlns="http://www.w3.org/2000/svg"><defs><marker id="marker6826" overflow="visible" orient="auto"><path transform="matrix(-.4 0 0 -.4 -4 0)" d="m0 0 5-5-17.5 5 17.5 5z" fill="#03cc00" fill-rule="evenodd" stroke="#03cc00" stroke-width="1pt"/></marker><marker id="marker6094" overflow="visible" orient="auto"><path transform="matrix(-.4 0 0 -.4 -4 0)" d="m0 0 5-5-17.5 5 17.5 5z" fill="#03cc00" fill-rule="evenodd" stroke="#03cc00" stroke-width="1pt"/></marker><marker id="marker4892" overflow="visible" orient="auto"><path transform="matrix(-.4 0 0 -.4 -4 0)" d="m0 0 5-5-17.5 5 17.5 5z" fill="#ff1414" fill-rule="evenodd" stroke="#ff1414" stroke-width="1pt"/></marker><marker id="Arrow1Mend" overflow="visible" orient="auto"><path transform="matrix(-.4 0 0 -.4 -4 0)" d="m0 0 5-5-17.5 5 17.5 5z" fill="#ff1414" fill-rule="evenodd" stroke="#ff1414" stroke-width="1pt"/></marker></defs><g transform="translate(386.31 -58.387)"><g fill="none"><path d="m-286.91 58.928a113.06 113.06 0 0 1 0 113.06" stroke="#313017" stroke-dasharray="4.33, 2.165" stroke-width="2.165" style="paint-order:normal"/><g stroke="#0064ff" stroke-width="1.265"><path d="m-384.87 115.48 107.25-36.191"/><path d="m-384.83 94.623 107.2-15.337"/><path d="m-384.83 136.3 107.2-57.009"/></g></g><g><circle cx="-277.62" cy="79.475" r="4.5436" fill="#0064ff" stroke="#000" style="paint-order:normal"/><path d="m-384.87 115.48 173.34-14.412" fill="none" stroke="#ff1414" stroke-width="1.265"/><circle cx="-211.66" cy="100.95" r="4.5436" fill="#ff1414" stroke="#000" style="paint-order:normal"/></g><g fill="none" stroke-width="1.265"><path d="m-384.83 94.623 195.1 20.233" marker-end="url(#Arrow1Mend)" stroke="#ff1414"/><path d="m-384.83 136.3 193.49-51.64" marker-end="url(#marker4892)" stroke="#ff1414"/><path d="m-384.87 115.48 72.992 19.606" stroke="#03cc00"/></g><circle cx="-311.83" cy="134.77" r="4.5436" fill="#03cc00" stroke="#000" style="paint-order:normal"/><g fill="none"><path d="m-384.83 94.623 95.263 42.977" marker-end="url(#marker6094)" stroke="#03cc00" stroke-width="1.265"/><path d="m-384.83 136.3 93.752 7.3526" marker-end="url(#marker6826)" stroke="#03cc00" stroke-width="1.265"/><path d="m-384.83 94.623v41.672" stroke="#030003" stroke-linecap="round" stroke-width="2.965"/></g></g></svg>
