<?xml version="1.0" encoding="UTF-8"?>
<svg width="336.14mm" height="71.556mm" version="1.1" viewBox="0 0 336.13888 71.555558" xmlns="http://www.w3.org/2000/svg"><g transform="translate(-34.778 -14.278)"><g fill="#fff" stroke="#000"><rect x="123.47" y="14.778" width="35.278" height="35.278" style="paint-order:normal"/><rect x="158.75" y="14.778" width="35.278" height="35.278" style="paint-order:normal"/><rect x="123.47" y="50.056" width="35.278" height="35.278" style="paint-order:normal"/><rect x="158.75" y="50.056" width="35.278" height="35.278" style="paint-order:normal"/><rect x="35.278" y="14.778" width="70.556" height="70.556" style="paint-order:normal"/><rect x="211.67" y="14.778" width="17.639" height="17.639" style="paint-order:normal"/><rect x="211.67" y="32.417" width="17.639" height="17.639" style="paint-order:normal"/><rect x="229.31" y="14.778" width="17.639" height="17.639" style="paint-order:normal"/><rect x="229.31" y="32.417" width="17.639" height="17.639" style="paint-order:normal"/><rect x="211.67" y="50.056" width="17.639" height="17.639" style="paint-order:normal"/><rect x="211.67" y="67.694" width="17.639" height="17.639" style="paint-order:normal"/><rect x="229.31" y="50.056" width="17.639" height="17.639" style="paint-order:normal"/><rect x="229.31" y="67.694" width="17.639" height="17.639" style="paint-order:normal"/><rect x="246.94" y="14.778" width="17.639" height="17.639" style="paint-order:normal"/><rect x="246.94" y="32.417" width="17.639" height="17.639" style="paint-order:normal"/><rect x="264.58" y="14.778" width="17.639" height="17.639" style="paint-order:normal"/><rect x="264.58" y="32.417" width="17.639" height="17.639" style="paint-order:normal"/><rect x="246.94" y="50.056" width="35.278" height="35.278" style="paint-order:normal"/></g><g fill="#f21f83" shape-rendering="auto" stroke="#fff" stroke-linecap="round"><path d="m45.852 20.825a1.0001 1.0001 0 0 0 -0.54492 1.8398l21.166 14.111a1.0001 1.0001 0 1 0 1.1094 -1.6641l-21.166-14.111a1.0001 1.0001 0 0 0 -0.56445 -0.17578z" color="#000000" color-rendering="auto" dominant-baseline="auto" image-rendering="auto" solid-color="#000000" style="font-feature-settings:normal;font-variant-alternates:normal;font-variant-caps:normal;font-variant-ligatures:normal;font-variant-numeric:normal;font-variant-position:normal;isolation:auto;mix-blend-mode:normal;shape-padding:0;text-decoration-color:#000000;text-decoration-line:none;text-decoration-style:solid;text-indent:0;text-orientation:mixed;text-transform:none;white-space:normal"/><path d="m98.783 27.882a1.0001 1.0001 0 0 0 -0.45312 0.11328l-35.277 17.639a1.0001 1.0001 0 1 0 0.89453 1.7891l35.277-17.639a1.0001 1.0001 0 0 0 -0.44141 -1.9023z" color="#000000" color-rendering="auto" dominant-baseline="auto" image-rendering="auto" solid-color="#000000" style="font-feature-settings:normal;font-variant-alternates:normal;font-variant-caps:normal;font-variant-ligatures:normal;font-variant-numeric:normal;font-variant-position:normal;isolation:auto;mix-blend-mode:normal;shape-padding:0;text-decoration-color:#000000;text-decoration-line:none;text-decoration-style:solid;text-indent:0;text-orientation:mixed;text-transform:none;white-space:normal"/><path d="m45.836 52.571a1.0001 1.0001 0 0 0 -0.89453 1.4062l10.584 24.693a1.0001 1.0001 0 1 0 1.8379 -0.78711l-10.584-24.695a1.0001 1.0001 0 0 0 -0.94336 -0.61719z" color="#000000" color-rendering="auto" dominant-baseline="auto" image-rendering="auto" solid-color="#000000" style="font-feature-settings:normal;font-variant-alternates:normal;font-variant-caps:normal;font-variant-ligatures:normal;font-variant-numeric:normal;font-variant-position:normal;isolation:auto;mix-blend-mode:normal;shape-padding:0;text-decoration-color:#000000;text-decoration-line:none;text-decoration-style:solid;text-indent:0;text-orientation:mixed;text-transform:none;white-space:normal"/><path d="m59.992 59.634a1.0001 1.0001 0 0 0 -0.42578 1.918l31.75 14.111a1.0001 1.0001 0 1 0 0.8125 -1.8262l-31.75-14.111a1.0001 1.0001 0 0 0 -0.38672 -0.0918z" color="#000000" color-rendering="auto" dominant-baseline="auto" image-rendering="auto" solid-color="#000000" style="font-feature-settings:normal;font-variant-alternates:normal;font-variant-caps:normal;font-variant-ligatures:normal;font-variant-numeric:normal;font-variant-position:normal;isolation:auto;mix-blend-mode:normal;shape-padding:0;text-decoration-color:#000000;text-decoration-line:none;text-decoration-style:solid;text-indent:0;text-orientation:mixed;text-transform:none;white-space:normal"/><path d="m99.847 34.931a1.0001 1.0001 0 0 0 -0.96094 0.69727l-3.5273 10.584a1.0006 1.0006 0 1 0 1.8984 0.63281l3.5273-10.584a1.0001 1.0001 0 0 0 -0.9375 -1.3301z" color="#000000" color-rendering="auto" dominant-baseline="auto" image-rendering="auto" solid-color="#000000" style="font-feature-settings:normal;font-variant-alternates:normal;font-variant-caps:normal;font-variant-ligatures:normal;font-variant-numeric:normal;font-variant-position:normal;isolation:auto;mix-blend-mode:normal;shape-padding:0;text-decoration-color:#000000;text-decoration-line:none;text-decoration-style:solid;text-indent:0;text-orientation:mixed;text-transform:none;white-space:normal"/><path d="m134.05 20.825a1.0001 1.0001 0 0 0 -0.54492 1.8398l21.166 14.111a1.0001 1.0001 0 1 0 1.1094 -1.6641l-21.166-14.111a1.0001 1.0001 0 0 0 -0.56445 -0.17578z" color="#000000" color-rendering="auto" dominant-baseline="auto" image-rendering="auto" solid-color="#000000" style="font-feature-settings:normal;font-variant-alternates:normal;font-variant-caps:normal;font-variant-ligatures:normal;font-variant-numeric:normal;font-variant-position:normal;isolation:auto;mix-blend-mode:normal;shape-padding:0;text-decoration-color:#000000;text-decoration-line:none;text-decoration-style:solid;text-indent:0;text-orientation:mixed;text-transform:none;white-space:normal"/><path d="m186.98 27.882a1.0001 1.0001 0 0 0 -0.45313 0.11328l-35.277 17.639a1.0001 1.0001 0 1 0 0.89453 1.7891l35.277-17.639a1.0001 1.0001 0 0 0 -0.4414 -1.9023z" color="#000000" color-rendering="auto" dominant-baseline="auto" image-rendering="auto" solid-color="#000000" style="font-feature-settings:normal;font-variant-alternates:normal;font-variant-caps:normal;font-variant-ligatures:normal;font-variant-numeric:normal;font-variant-position:normal;isolation:auto;mix-blend-mode:normal;shape-padding:0;text-decoration-color:#000000;text-decoration-line:none;text-decoration-style:solid;text-indent:0;text-orientation:mixed;text-transform:none;white-space:normal"/><path d="m134.03 52.571a1.0001 1.0001 0 0 0 -0.89453 1.4062l10.584 24.693a1.0001 1.0001 0 1 0 1.8379 -0.78711l-10.584-24.695a1.0001 1.0001 0 0 0 -0.94336 -0.61719z" color="#000000" color-rendering="auto" dominant-baseline="auto" image-rendering="auto" solid-color="#000000" style="font-feature-settings:normal;font-variant-alternates:normal;font-variant-caps:normal;font-variant-ligatures:normal;font-variant-numeric:normal;font-variant-position:normal;isolation:auto;mix-blend-mode:normal;shape-padding:0;text-decoration-color:#000000;text-decoration-line:none;text-decoration-style:solid;text-indent:0;text-orientation:mixed;text-transform:none;white-space:normal"/><path d="m148.19 59.634a1.0001 1.0001 0 0 0 -0.42578 1.918l31.75 14.111a1.0001 1.0001 0 1 0 0.8125 -1.8262l-31.75-14.111a1.0001 1.0001 0 0 0 -0.38672 -0.0918z" color="#000000" color-rendering="auto" dominant-baseline="auto" image-rendering="auto" solid-color="#000000" style="font-feature-settings:normal;font-variant-alternates:normal;font-variant-caps:normal;font-variant-ligatures:normal;font-variant-numeric:normal;font-variant-position:normal;isolation:auto;mix-blend-mode:normal;shape-padding:0;text-decoration-color:#000000;text-decoration-line:none;text-decoration-style:solid;text-indent:0;text-orientation:mixed;text-transform:none;white-space:normal"/><path d="m188.04 34.931a1.0001 1.0001 0 0 0 -0.96094 0.69727l-3.5273 10.584a1.0006 1.0006 0 1 0 1.8984 0.63281l3.5274-10.584a1.0001 1.0001 0 0 0 -0.9375 -1.3301z" color="#000000" color-rendering="auto" dominant-baseline="auto" image-rendering="auto" solid-color="#000000" style="font-feature-settings:normal;font-variant-alternates:normal;font-variant-caps:normal;font-variant-ligatures:normal;font-variant-numeric:normal;font-variant-position:normal;isolation:auto;mix-blend-mode:normal;shape-padding:0;text-decoration-color:#000000;text-decoration-line:none;text-decoration-style:solid;text-indent:0;text-orientation:mixed;text-transform:none;white-space:normal"/><path d="m222.24 20.825a1.0001 1.0001 0 0 0 -0.54492 1.8398l21.166 14.111a1.0001 1.0001 0 1 0 1.1094 -1.6641l-21.166-14.111a1.0001 1.0001 0 0 0 -0.56446 -0.17578z" color="#000000" color-rendering="auto" dominant-baseline="auto" image-rendering="auto" solid-color="#000000" style="font-feature-settings:normal;font-variant-alternates:normal;font-variant-caps:normal;font-variant-ligatures:normal;font-variant-numeric:normal;font-variant-position:normal;isolation:auto;mix-blend-mode:normal;shape-padding:0;text-decoration-color:#000000;text-decoration-line:none;text-decoration-style:solid;text-indent:0;text-orientation:mixed;text-transform:none;white-space:normal"/><path d="m275.17 27.882a1.0001 1.0001 0 0 0 -0.45312 0.11328l-35.277 17.639a1.0001 1.0001 0 1 0 0.89454 1.7891l35.277-17.639a1.0001 1.0001 0 0 0 -0.44141 -1.9023z" color="#000000" color-rendering="auto" dominant-baseline="auto" image-rendering="auto" solid-color="#000000" style="font-feature-settings:normal;font-variant-alternates:normal;font-variant-caps:normal;font-variant-ligatures:normal;font-variant-numeric:normal;font-variant-position:normal;isolation:auto;mix-blend-mode:normal;shape-padding:0;text-decoration-color:#000000;text-decoration-line:none;text-decoration-style:solid;text-indent:0;text-orientation:mixed;text-transform:none;white-space:normal"/><path d="m222.22 52.571a1.0001 1.0001 0 0 0 -0.89453 1.4062l10.584 24.693a1.0001 1.0001 0 1 0 1.8379 -0.78711l-10.584-24.695a1.0001 1.0001 0 0 0 -0.94336 -0.61719z" color="#000000" color-rendering="auto" dominant-baseline="auto" image-rendering="auto" solid-color="#000000" style="font-feature-settings:normal;font-variant-alternates:normal;font-variant-caps:normal;font-variant-ligatures:normal;font-variant-numeric:normal;font-variant-position:normal;isolation:auto;mix-blend-mode:normal;shape-padding:0;text-decoration-color:#000000;text-decoration-line:none;text-decoration-style:solid;text-indent:0;text-orientation:mixed;text-transform:none;white-space:normal"/><path d="m236.38 59.634a1.0001 1.0001 0 0 0 -0.42578 1.918l31.75 14.111a1.0001 1.0001 0 1 0 0.8125 -1.8262l-31.75-14.111a1.0001 1.0001 0 0 0 -0.38672 -0.0918z" color="#000000" color-rendering="auto" dominant-baseline="auto" image-rendering="auto" solid-color="#000000" style="font-feature-settings:normal;font-variant-alternates:normal;font-variant-caps:normal;font-variant-ligatures:normal;font-variant-numeric:normal;font-variant-position:normal;isolation:auto;mix-blend-mode:normal;shape-padding:0;text-decoration-color:#000000;text-decoration-line:none;text-decoration-style:solid;text-indent:0;text-orientation:mixed;text-transform:none;white-space:normal"/><path d="m276.24 34.931a1.0001 1.0001 0 0 0 -0.96094 0.69727l-3.5273 10.584a1.0006 1.0006 0 1 0 1.8984 0.63281l3.5273-10.584a1.0001 1.0001 0 0 0 -0.9375 -1.3301z" color="#000000" color-rendering="auto" dominant-baseline="auto" image-rendering="auto" solid-color="#000000" style="font-feature-settings:normal;font-variant-alternates:normal;font-variant-caps:normal;font-variant-ligatures:normal;font-variant-numeric:normal;font-variant-position:normal;isolation:auto;mix-blend-mode:normal;shape-padding:0;text-decoration-color:#000000;text-decoration-line:none;text-decoration-style:solid;text-indent:0;text-orientation:mixed;text-transform:none;white-space:normal"/></g><g fill="#fff"><g stroke="#000"><rect x="299.86" y="14.778" width="17.639" height="17.639" style="paint-order:normal"/><rect x="299.86" y="32.417" width="17.639" height="17.639" style="paint-order:normal"/><rect x="317.5" y="14.778" width="17.639" height="17.639" style="paint-order:normal"/><rect x="317.5" y="32.417" width="17.639" height="17.639" style="paint-order:normal"/><rect x="299.86" y="50.056" width="17.639" height="17.639" style="paint-order:normal"/><rect x="299.86" y="67.694" width="17.639" height="17.639" style="paint-order:normal"/><rect x="317.5" y="50.056" width="17.639" height="17.639" style="paint-order:normal"/><rect x="317.5" y="67.694" width="17.639" height="17.639" style="paint-order:normal"/><rect x="335.14" y="14.778" width="17.639" height="17.639" style="paint-order:normal"/></g><rect x="317.5" y="32.417" width="8.8194" height="8.8194" stroke="#030303" stroke-linecap="round" style="paint-order:normal"/><g stroke="#000"><rect x="335.14" y="32.417" width="17.639" height="17.639" style="paint-order:normal"/><rect x="352.78" y="14.778" width="17.639" height="17.639" style="paint-order:normal"/><rect x="352.78" y="32.417" width="17.639" height="17.639" style="paint-order:normal"/></g><rect x="326.32" y="32.417" width="8.8194" height="8.8194" stroke="#030303" stroke-linecap="round" style="paint-order:normal"/><rect x="352.78" y="32.417" width="8.8194" height="8.8194" stroke="#030303" stroke-linecap="round" style="paint-order:normal"/><rect x="335.14" y="50.056" width="35.278" height="35.278" stroke="#000" style="paint-order:normal"/><rect x="317.5" y="41.236" width="8.8194" height="8.8194" stroke="#030303" stroke-linecap="round" style="paint-order:normal"/></g><g stroke-linecap="round"><path d="m310.43 20.825a1.0001 1.0001 0 0 0 -0.54492 1.8398l21.166 14.111a1.0001 1.0001 0 1 0 1.1094 -1.6641l-21.166-14.111a1.0001 1.0001 0 0 0 -0.56446 -0.17578z" color="#000000" color-rendering="auto" dominant-baseline="auto" fill="#f21f83" image-rendering="auto" shape-rendering="auto" solid-color="#000000" stroke="#fff" style="font-feature-settings:normal;font-variant-alternates:normal;font-variant-caps:normal;font-variant-ligatures:normal;font-variant-numeric:normal;font-variant-position:normal;isolation:auto;mix-blend-mode:normal;shape-padding:0;text-decoration-color:#000000;text-decoration-line:none;text-decoration-style:solid;text-indent:0;text-orientation:mixed;text-transform:none;white-space:normal"/><rect x="326.32" y="41.236" width="8.8194" height="8.8194" fill="#fff" stroke="#030303" style="paint-order:normal"/><rect x="361.6" y="32.417" width="8.8194" height="8.8194" fill="#fff" stroke="#030303" style="paint-order:normal"/></g><g fill="#f21f83" shape-rendering="auto" stroke="#fff" stroke-linecap="round"><path d="m363.37 27.882a1.0001 1.0001 0 0 0 -0.45312 0.11328l-35.277 17.639a1.0001 1.0001 0 1 0 0.89454 1.7891l35.277-17.639a1.0001 1.0001 0 0 0 -0.44141 -1.9023z" color="#000000" color-rendering="auto" dominant-baseline="auto" image-rendering="auto" solid-color="#000000" style="font-feature-settings:normal;font-variant-alternates:normal;font-variant-caps:normal;font-variant-ligatures:normal;font-variant-numeric:normal;font-variant-position:normal;isolation:auto;mix-blend-mode:normal;shape-padding:0;text-decoration-color:#000000;text-decoration-line:none;text-decoration-style:solid;text-indent:0;text-orientation:mixed;text-transform:none;white-space:normal"/><path d="m310.42 52.571a1.0001 1.0001 0 0 0 -0.89453 1.4062l10.584 24.693a1.0001 1.0001 0 1 0 1.8379 -0.78711l-10.584-24.695a1.0001 1.0001 0 0 0 -0.94336 -0.61719z" color="#000000" color-rendering="auto" dominant-baseline="auto" image-rendering="auto" solid-color="#000000" style="font-feature-settings:normal;font-variant-alternates:normal;font-variant-caps:normal;font-variant-ligatures:normal;font-variant-numeric:normal;font-variant-position:normal;isolation:auto;mix-blend-mode:normal;shape-padding:0;text-decoration-color:#000000;text-decoration-line:none;text-decoration-style:solid;text-indent:0;text-orientation:mixed;text-transform:none;white-space:normal"/><path d="m324.58 59.634a1.0001 1.0001 0 0 0 -0.42578 1.918l31.75 14.111a1.0001 1.0001 0 1 0 0.8125 -1.8262l-31.75-14.111a1.0001 1.0001 0 0 0 -0.38672 -0.0918z" color="#000000" color-rendering="auto" dominant-baseline="auto" image-rendering="auto" solid-color="#000000" style="font-feature-settings:normal;font-variant-alternates:normal;font-variant-caps:normal;font-variant-ligatures:normal;font-variant-numeric:normal;font-variant-position:normal;isolation:auto;mix-blend-mode:normal;shape-padding:0;text-decoration-color:#000000;text-decoration-line:none;text-decoration-style:solid;text-indent:0;text-orientation:mixed;text-transform:none;white-space:normal"/></g><g stroke-linecap="round"><rect x="352.78" y="41.236" width="8.8194" height="8.8194" fill="#fff" stroke="#030303" style="paint-order:normal"/><rect x="361.6" y="41.236" width="8.8194" height="8.8194" fill="#fff" stroke="#030303" style="paint-order:normal"/><path d="m364.43 34.931a1.0001 1.0001 0 0 0 -0.96094 0.69727l-3.5273 10.584a1.0006 1.0006 0 1 0 1.8984 0.63281l3.5273-10.584a1.0001 1.0001 0 0 0 -0.9375 -1.3301z" color="#000000" color-rendering="auto" dominant-baseline="auto" fill="#f21f83" image-rendering="auto" shape-rendering="auto" solid-color="#000000" stroke="#fff" style="font-feature-settings:normal;font-variant-alternates:normal;font-variant-caps:normal;font-variant-ligatures:normal;font-variant-numeric:normal;font-variant-position:normal;isolation:auto;mix-blend-mode:normal;shape-padding:0;text-decoration-color:#000000;text-decoration-line:none;text-decoration-style:solid;text-indent:0;text-orientation:mixed;text-transform:none;white-space:normal"/></g></g></svg>
