<?xml version="1.0" encoding="UTF-8"?>
<svg width="282.22mm" height="194.03mm" version="1.1" viewBox="0 0 282.22219 194.02777" xmlns="http://www.w3.org/2000/svg"><defs><marker id="marker6186" overflow="visible" orient="auto"><path transform="scale(.4)" d="m5.77 0-8.65 5v-10z" fill="#f00" fill-rule="evenodd" stroke="#f00" stroke-width="1pt"/></marker><marker id="marker6128" overflow="visible" orient="auto"><path transform="scale(.4)" d="m5.77 0-8.65 5v-10z" fill="#f00" fill-rule="evenodd" stroke="#f00" stroke-width="1pt"/></marker><marker id="marker6070" overflow="visible" orient="auto"><path transform="scale(.4)" d="m5.77 0-8.65 5v-10z" fill="#f00" fill-rule="evenodd" stroke="#f00" stroke-width="1pt"/></marker><marker id="marker5958" overflow="visible" orient="auto"><path transform="scale(.4)" d="m5.77 0-8.65 5v-10z" fill="#f00" fill-rule="evenodd" stroke="#f00" stroke-width="1pt"/></marker><marker id="marker5900" overflow="visible" orient="auto"><path transform="scale(.4)" d="m5.77 0-8.65 5v-10z" fill="#f00" fill-rule="evenodd" stroke="#f00" stroke-width="1pt"/></marker><marker id="TriangleOutM" overflow="visible" orient="auto"><path transform="scale(.4)" d="m5.77 0-8.65 5v-10z" fill="#f00" fill-rule="evenodd" stroke="#f00" stroke-width="1pt"/></marker></defs><g transform="translate(-202.85 2.8611)"><rect x="308.68" y="32.417" width="17.639" height="17.639" fill="#e6e6e6" stroke="#000" style="paint-order:normal"/><rect x="326.32" y="14.778" width="17.639" height="17.639" fill="#e6e6e6" stroke="#000" style="paint-order:normal"/><g fill="#fff" stroke="#000"><rect x="326.32" y="32.417" width="17.639" height="17.639" style="paint-order:normal"/><rect x="308.68" y="50.056" width="17.639" height="17.639" style="paint-order:normal"/><rect x="308.68" y="67.694" width="17.639" height="17.639" style="paint-order:normal"/><rect x="326.32" y="67.694" width="17.639" height="17.639" style="paint-order:normal"/><rect x="326.32" y="50.056" width="17.639" height="17.639" style="paint-order:normal"/></g><g><path d="m319.26 53.583 10.583 24.694" fill="none" stroke="#f21f83" stroke-linecap="round"/><rect x="343.96" y="14.778" width="17.639" height="17.639" fill="#fff" stroke="#000" style="paint-order:normal"/><rect x="326.32" y="32.417" width="8.8194" height="8.8194" fill="#e6e6e6" stroke="#030303" stroke-linecap="round" style="paint-order:normal"/></g><g fill="#fff"><rect x="361.6" y="32.417" width="17.639" height="17.639" stroke="#000" style="paint-order:normal"/><rect x="370.42" y="41.236" width="8.8194" height="8.8194" stroke="#030303" stroke-linecap="round" style="paint-order:normal"/><rect x="361.6" y="41.236" width="8.8194" height="8.8194" stroke="#030303" stroke-linecap="round" style="paint-order:normal"/><rect x="343.96" y="32.417" width="17.639" height="17.639" stroke="#000" style="paint-order:normal"/><rect x="370.42" y="32.417" width="8.8194" height="8.8194" stroke="#030303" stroke-linecap="round" style="paint-order:normal"/><rect x="361.6" y="14.778" width="17.639" height="17.639" stroke="#000" style="paint-order:normal"/></g><path d="m369.71 46.528 3.5278-10.583" fill="none" stroke="#f21f83" stroke-linecap="round"/><g><rect x="335.14" y="32.417" width="8.8194" height="8.8194" fill="#e6e6e6" stroke="#030303" stroke-linecap="round" style="paint-order:normal"/><rect x="361.6" y="32.417" width="8.8194" height="8.8194" fill="#fff" stroke="#030303" stroke-linecap="round" style="paint-order:normal"/><rect x="343.96" y="50.056" width="35.278" height="35.278" fill="#fff" stroke="#000" style="paint-order:normal"/><rect x="326.32" y="41.236" width="8.8194" height="8.8194" fill="#e6e6e6" stroke="#030303" stroke-linecap="round" style="paint-order:normal"/><rect x="335.14" y="41.236" width="8.8194" height="8.8194" fill="#e6e6e6" stroke="#030303" stroke-linecap="round" style="paint-order:normal"/></g><path d="m333.38 60.639 31.75 14.111" fill="none" stroke="#f21f83" stroke-linecap="round"/><rect x="308.68" y="14.778" width="17.639" height="17.639" fill="#e6e6e6" stroke="#000" style="paint-order:normal"/><g fill="none"><path d="m319.26 21.833 21.167 14.111" stroke="#f21f83" stroke-linecap="round"/><path d="m336.9 46.528 35.278-17.639" stroke="#f21f83" stroke-linecap="round"/><path d="m332.56 4.3795 48.759 89.58" marker-end="url(#marker5900)" stroke="#f00" stroke-width="1.5"/></g><g fill="#fff" stroke="#000"><rect x="220.49" y="32.417" width="17.639" height="17.639" style="paint-order:normal"/><rect x="238.12" y="14.778" width="17.639" height="17.639" style="paint-order:normal"/><rect x="238.12" y="32.417" width="17.639" height="17.639" style="paint-order:normal"/><rect x="220.49" y="50.056" width="17.639" height="17.639" style="paint-order:normal"/><rect x="220.49" y="67.694" width="17.639" height="17.639" style="paint-order:normal"/><rect x="238.12" y="67.694" width="17.639" height="17.639" style="paint-order:normal"/><rect x="238.12" y="50.056" width="17.639" height="17.639" style="paint-order:normal"/></g><path d="m231.07 53.583 10.583 24.694" fill="none" stroke="#f21f83" stroke-linecap="round"/><g fill="#fff"><rect x="255.76" y="14.778" width="17.639" height="17.639" stroke="#000" style="paint-order:normal"/><rect x="238.12" y="32.417" width="8.8194" height="8.8194" stroke="#030303" stroke-linecap="round" style="paint-order:normal"/><rect x="273.4" y="32.417" width="17.639" height="17.639" stroke="#000" style="paint-order:normal"/><rect x="282.22" y="41.236" width="8.8194" height="8.8194" stroke="#030303" stroke-linecap="round" style="paint-order:normal"/><rect x="273.4" y="41.236" width="8.8194" height="8.8194" stroke="#030303" stroke-linecap="round" style="paint-order:normal"/><rect x="255.76" y="32.417" width="17.639" height="17.639" stroke="#000" style="paint-order:normal"/><rect x="282.22" y="32.417" width="8.8194" height="8.8194" stroke="#030303" stroke-linecap="round" style="paint-order:normal"/><rect x="273.4" y="14.778" width="17.639" height="17.639" stroke="#000" style="paint-order:normal"/></g><path d="m281.52 46.528 3.5278-10.583" fill="none" stroke="#f21f83" stroke-linecap="round"/><g fill="#fff"><rect x="246.94" y="32.417" width="8.8194" height="8.8194" stroke="#030303" stroke-linecap="round" style="paint-order:normal"/><rect x="273.4" y="32.417" width="8.8194" height="8.8194" stroke="#030303" stroke-linecap="round" style="paint-order:normal"/><rect x="255.76" y="50.056" width="35.278" height="35.278" stroke="#000" style="paint-order:normal"/><rect x="238.12" y="41.236" width="8.8194" height="8.8194" stroke="#030303" stroke-linecap="round" style="paint-order:normal"/><rect x="246.94" y="41.236" width="8.8194" height="8.8194" stroke="#030303" stroke-linecap="round" style="paint-order:normal"/></g><path d="m245.18 60.639 31.75 14.111" fill="none" stroke="#f21f83" stroke-linecap="round"/><rect x="220.49" y="14.778" width="17.639" height="17.639" fill="#fff" stroke="#000" style="paint-order:normal"/><g fill="none"><path d="m231.07 21.833 21.167 14.111" stroke="#f21f83" stroke-linecap="round"/><path d="m248.71 46.528 35.278-17.639" stroke="#f21f83" stroke-linecap="round"/><path d="m244.37 4.3795 48.759 89.58" marker-end="url(#TriangleOutM)" stroke="#f00" stroke-width="1.5"/></g><rect x="396.88" y="32.417" width="17.639" height="17.639" fill="#e6e6e6" stroke="#000" style="paint-order:normal"/><rect x="414.51" y="14.778" width="17.639" height="17.639" fill="#b3b3b3" stroke="#000" style="paint-order:normal"/><g fill="#fff" stroke="#000"><rect x="414.51" y="32.417" width="17.639" height="17.639" style="paint-order:normal"/><rect x="396.88" y="50.056" width="17.639" height="17.639" style="paint-order:normal"/><rect x="396.88" y="67.694" width="17.639" height="17.639" style="paint-order:normal"/><rect x="414.51" y="67.694" width="17.639" height="17.639" style="paint-order:normal"/><rect x="414.51" y="50.056" width="17.639" height="17.639" style="paint-order:normal"/></g><g><path d="m407.46 53.583 10.583 24.694" fill="none" stroke="#f21f83" stroke-linecap="round"/><rect x="432.15" y="14.778" width="17.639" height="17.639" fill="#fff" stroke="#000" style="paint-order:normal"/><rect x="414.51" y="32.417" width="8.8194" height="8.8194" fill="#e6e6e6" stroke="#030303" stroke-linecap="round" style="paint-order:normal"/></g><g fill="#fff"><rect x="449.79" y="32.417" width="17.639" height="17.639" stroke="#000" style="paint-order:normal"/><rect x="458.61" y="41.236" width="8.8194" height="8.8194" stroke="#030303" stroke-linecap="round" style="paint-order:normal"/><rect x="449.79" y="41.236" width="8.8194" height="8.8194" stroke="#030303" stroke-linecap="round" style="paint-order:normal"/><rect x="432.15" y="32.417" width="17.639" height="17.639" stroke="#000" style="paint-order:normal"/><rect x="458.61" y="32.417" width="8.8194" height="8.8194" stroke="#030303" stroke-linecap="round" style="paint-order:normal"/><rect x="449.79" y="14.778" width="17.639" height="17.639" stroke="#000" style="paint-order:normal"/></g><path d="m457.91 46.528 3.5278-10.583" fill="none" stroke="#f21f83" stroke-linecap="round"/><g><rect x="423.33" y="32.417" width="8.8194" height="8.8194" fill="#e6e6e6" stroke="#030303" stroke-linecap="round" style="paint-order:normal"/><rect x="449.79" y="32.417" width="8.8194" height="8.8194" fill="#fff" stroke="#030303" stroke-linecap="round" style="paint-order:normal"/><rect x="432.15" y="50.056" width="35.278" height="35.278" fill="#fff" stroke="#000" style="paint-order:normal"/><rect x="414.51" y="41.236" width="8.8194" height="8.8194" fill="#e6e6e6" stroke="#030303" stroke-linecap="round" style="paint-order:normal"/><rect x="423.33" y="41.236" width="8.8194" height="8.8194" fill="#e6e6e6" stroke="#030303" stroke-linecap="round" style="paint-order:normal"/></g><path d="m421.57 60.639 31.75 14.111" fill="none" stroke="#f21f83" stroke-linecap="round"/><rect x="396.88" y="14.778" width="17.639" height="17.639" fill="#e6e6e6" stroke="#000" style="paint-order:normal"/><g fill="none"><path d="m407.46 21.833 21.167 14.111" stroke="#f21f83" stroke-linecap="round"/><path d="m425.1 46.528 35.278-17.639" stroke="#f21f83" stroke-linecap="round"/><path d="m420.75 4.3795 48.759 89.58" marker-end="url(#marker5958)" stroke="#f00" stroke-width="1.5"/></g><g fill="#fff" stroke="#000"><rect x="220.49" y="120.61" width="17.639" height="17.639" style="paint-order:normal"/><rect x="238.12" y="102.97" width="17.639" height="17.639" style="paint-order:normal"/><rect x="255.76" y="138.25" width="35.278" height="35.278" style="paint-order:normal"/><rect x="238.12" y="120.61" width="17.639" height="17.639" style="paint-order:normal"/><rect x="220.49" y="138.25" width="17.639" height="17.639" style="paint-order:normal"/><rect x="220.49" y="155.89" width="17.639" height="17.639" style="paint-order:normal"/><rect x="238.12" y="155.89" width="17.639" height="17.639" style="paint-order:normal"/><rect x="238.12" y="138.25" width="17.639" height="17.639" style="paint-order:normal"/></g><path d="m231.07 141.78 10.583 24.694" fill="none" stroke="#f21f83" stroke-linecap="round"/><g><rect x="255.76" y="102.97" width="17.639" height="17.639" fill="#e6e6e6" stroke="#000" style="paint-order:normal"/><rect x="238.12" y="120.61" width="8.8194" height="8.8194" fill="#fff" stroke="#030303" stroke-linecap="round" style="paint-order:normal"/><rect x="273.4" y="120.61" width="17.639" height="17.639" fill="#fff" stroke="#000" style="paint-order:normal"/></g><g fill="#e6e6e6"><rect x="282.22" y="129.43" width="8.8194" height="8.8194" stroke="#030303" stroke-linecap="round" style="paint-order:normal"/><rect x="273.4" y="129.43" width="8.8194" height="8.8194" stroke="#030303" stroke-linecap="round" style="paint-order:normal"/><rect x="255.76" y="120.61" width="17.639" height="17.639" stroke="#000" style="paint-order:normal"/><rect x="282.22" y="120.61" width="8.8194" height="8.8194" stroke="#030303" stroke-linecap="round" style="paint-order:normal"/><rect x="273.4" y="102.97" width="17.639" height="17.639" stroke="#000" style="paint-order:normal"/></g><path d="m281.52 134.72 3.5278-10.583" fill="none" stroke="#f21f83" stroke-linecap="round"/><g stroke="#030303" stroke-linecap="round"><rect x="246.94" y="120.61" width="8.8194" height="8.8194" fill="#fff" style="paint-order:normal"/><rect x="273.4" y="120.61" width="8.8194" height="8.8194" fill="#e6e6e6" style="paint-order:normal"/><rect x="238.12" y="129.43" width="8.8194" height="8.8194" fill="#fff" style="paint-order:normal"/><rect x="246.94" y="129.43" width="8.8194" height="8.8194" fill="#fff" style="paint-order:normal"/></g><path d="m245.18 148.83 31.75 14.111" fill="none" stroke="#f21f83" stroke-linecap="round"/><rect x="220.49" y="102.97" width="17.639" height="17.639" fill="#fff" stroke="#000" style="paint-order:normal"/><g fill="none"><path d="m231.07 110.03 21.167 14.111" stroke="#f21f83" stroke-linecap="round"/><path d="m248.71 134.72 35.278-17.639" stroke="#f21f83" stroke-linecap="round"/><path d="m244.37 92.574 48.759 89.58" marker-end="url(#marker6128)" stroke="#f00" stroke-width="1.5"/></g><g fill="#fff" stroke="#000"><rect x="396.88" y="120.61" width="17.639" height="17.639" style="paint-order:normal"/><rect x="414.51" y="102.97" width="17.639" height="17.639" style="paint-order:normal"/><rect x="432.15" y="138.25" width="35.278" height="35.278" style="paint-order:normal"/><rect x="414.51" y="120.61" width="17.639" height="17.639" style="paint-order:normal"/><rect x="396.88" y="138.25" width="17.639" height="17.639" style="paint-order:normal"/><rect x="396.88" y="155.89" width="17.639" height="17.639" style="paint-order:normal"/><rect x="414.51" y="155.89" width="17.639" height="17.639" style="paint-order:normal"/><rect x="414.51" y="138.25" width="17.639" height="17.639" style="paint-order:normal"/></g><path d="m407.46 141.78 10.583 24.694" fill="none" stroke="#f21f83" stroke-linecap="round"/><g><rect x="432.15" y="102.97" width="17.639" height="17.639" fill="#e6e6e6" stroke="#000" style="paint-order:normal"/><rect x="414.51" y="120.61" width="8.8194" height="8.8194" fill="#fff" stroke="#030303" stroke-linecap="round" style="paint-order:normal"/><rect x="449.79" y="120.61" width="17.639" height="17.639" fill="#fff" stroke="#000" style="paint-order:normal"/><rect x="458.61" y="129.43" width="8.8194" height="8.8194" fill="#e6e6e6" stroke="#030303" stroke-linecap="round" style="paint-order:normal"/><rect x="449.79" y="129.43" width="8.8194" height="8.8194" fill="#e6e6e6" stroke="#030303" stroke-linecap="round" style="paint-order:normal"/><rect x="432.15" y="120.61" width="17.639" height="17.639" fill="#8cffa2" stroke="#000" style="paint-order:normal"/><rect x="458.61" y="120.61" width="8.8194" height="8.8194" fill="#e6e6e6" stroke="#030303" stroke-linecap="round" style="paint-order:normal"/><rect x="449.79" y="102.97" width="17.639" height="17.639" fill="#e6e6e6" stroke="#000" style="paint-order:normal"/></g><path d="m457.91 134.72 3.5278-10.583" fill="none" stroke="#f21f83" stroke-linecap="round"/><g stroke="#030303" stroke-linecap="round"><rect x="423.33" y="120.61" width="8.8194" height="8.8194" fill="#fff" style="paint-order:normal"/><rect x="449.79" y="120.61" width="8.8194" height="8.8194" fill="#e6e6e6" style="paint-order:normal"/><rect x="414.51" y="129.43" width="8.8194" height="8.8194" fill="#fff" style="paint-order:normal"/><rect x="423.33" y="129.43" width="8.8194" height="8.8194" fill="#fff" style="paint-order:normal"/></g><path d="m421.57 148.83 31.75 14.111" fill="none" stroke="#f21f83" stroke-linecap="round"/><rect x="396.88" y="102.97" width="17.639" height="17.639" fill="#fff" stroke="#000" style="paint-order:normal"/><g fill="none"><path d="m407.46 110.03 21.167 14.111" stroke="#f21f83" stroke-linecap="round"/><path d="m425.1 134.72 35.278-17.639" stroke="#f21f83" stroke-linecap="round"/><path d="m420.75 92.574 48.759 89.58" marker-end="url(#marker6070)" stroke="#f00" stroke-width="1.5"/></g><g fill="#fff" stroke="#000"><rect x="308.68" y="120.61" width="17.639" height="17.639" style="paint-order:normal"/><rect x="326.32" y="102.97" width="17.639" height="17.639" style="paint-order:normal"/><rect x="343.96" y="138.25" width="35.278" height="35.278" style="paint-order:normal"/><rect x="326.32" y="120.61" width="17.639" height="17.639" style="paint-order:normal"/><rect x="308.68" y="138.25" width="17.639" height="17.639" style="paint-order:normal"/><rect x="308.68" y="155.89" width="17.639" height="17.639" style="paint-order:normal"/><rect x="326.32" y="155.89" width="17.639" height="17.639" style="paint-order:normal"/><rect x="326.32" y="138.25" width="17.639" height="17.639" style="paint-order:normal"/></g><path d="m319.26 141.78 10.583 24.694" fill="none" stroke="#f21f83" stroke-linecap="round"/><g><rect x="343.96" y="102.97" width="17.639" height="17.639" fill="#b3b3b3" stroke="#000" style="paint-order:normal"/><rect x="326.32" y="120.61" width="8.8194" height="8.8194" fill="#fff" stroke="#030303" stroke-linecap="round" style="paint-order:normal"/><rect x="361.6" y="120.61" width="17.639" height="17.639" fill="#fff" stroke="#000" style="paint-order:normal"/></g><g fill="#e6e6e6"><rect x="370.42" y="129.43" width="8.8194" height="8.8194" stroke="#030303" stroke-linecap="round" style="paint-order:normal"/><rect x="361.6" y="129.43" width="8.8194" height="8.8194" stroke="#030303" stroke-linecap="round" style="paint-order:normal"/><rect x="343.96" y="120.61" width="17.639" height="17.639" stroke="#000" style="paint-order:normal"/><rect x="370.42" y="120.61" width="8.8194" height="8.8194" stroke="#030303" stroke-linecap="round" style="paint-order:normal"/><rect x="361.6" y="102.97" width="17.639" height="17.639" stroke="#000" style="paint-order:normal"/></g><path d="m369.71 134.72 3.5278-10.583" fill="none" stroke="#f21f83" stroke-linecap="round"/><g stroke="#030303" stroke-linecap="round"><rect x="335.14" y="120.61" width="8.8194" height="8.8194" fill="#fff" style="paint-order:normal"/><rect x="361.6" y="120.61" width="8.8194" height="8.8194" fill="#e6e6e6" style="paint-order:normal"/><rect x="326.32" y="129.43" width="8.8194" height="8.8194" fill="#fff" style="paint-order:normal"/><rect x="335.14" y="129.43" width="8.8194" height="8.8194" fill="#fff" style="paint-order:normal"/></g><path d="m333.37 148.83 31.75 14.111" fill="none" stroke="#f21f83" stroke-linecap="round"/><rect x="308.68" y="102.97" width="17.639" height="17.639" fill="#fff" stroke="#000" style="paint-order:normal"/><g fill="none"><path d="m319.26 110.03 21.167 14.111" stroke="#f21f83" stroke-linecap="round"/><path d="m336.9 134.72 35.278-17.639" stroke="#f21f83" stroke-linecap="round"/><path d="m332.56 92.574 48.759 89.58" marker-end="url(#marker6186)" stroke="#f00" stroke-width="1.5"/></g></g></svg>
